<?xml version="1.0" ?><svg viewBox="0 0 64 64" xmlns="http://www.w3.org/2000/svg"><g data-name="19-well cooked" id="_19-well_cooked"><path d="M47,58H1a.99974.99974,0,0,0-1,1v4a.99974.99974,0,0,0,1,1H47a.99974.99974,0,0,0,1-1V59A.99974.99974,0,0,0,47,58Zm-1,4H2V60H46Z"/><path d="M57,26.142V7H55V26.142a4,4,0,1,0,2,0ZM56,32a2,2,0,1,1,2-2A2.00229,2.00229,0,0,1,56,32Z"/><path d="M60,23.08008V4a4,4,0,0,0-8,0V23.0791A8.00235,8.00235,0,0,0,48.00488,30.294,8.09278,8.09278,0,0,0,55.86426,37.999c.0459.001.09179.001.13769.001A8.00054,8.00054,0,0,0,64,30,8.04074,8.04074,0,0,0,60,23.08008Zm.20654,11.19824a5.85819,5.85819,0,0,1-4.30908,1.7207,6.06747,6.06747,0,0,1-5.89355-5.77734,6.00178,6.00178,0,0,1,3.42578-5.63574A1.0004,1.0004,0,0,0,54,23.68262V4a2,2,0,0,1,4,0V23.68262a1.00125,1.00125,0,0,0,.57031.90332A6.02839,6.02839,0,0,1,62,30,5.957,5.957,0,0,1,60.20654,34.27832Z"/><path d="M12,54c0-1.94141-2.71191-5.0625-3.25586-5.668a1.03326,1.03326,0,0,0-1.48828,0C6.71191,48.9375,4,52.05859,4,54a4,4,0,0,0,8,0ZM9,55.7218V54a1,1,0,0,0-2,0v1.7218A1.99369,1.99369,0,0,1,6,54c0-.6377.93994-2.126,2-3.45215C9.06006,51.874,10,53.3623,10,54A1.99369,1.99369,0,0,1,9,55.7218Z"/><path d="M16,58a4.00427,4.00427,0,0,0,4-4c0-1.94141-2.71191-5.0625-3.25586-5.668a1.03326,1.03326,0,0,0-1.48828,0C14.71191,48.9375,12,52.05859,12,54A4.00427,4.00427,0,0,0,16,58Zm0-7.45215C17.06006,51.874,18,53.3623,18,54a1.99369,1.99369,0,0,1-1,1.7218V54a1,1,0,0,0-2,0v1.7218A1.99369,1.99369,0,0,1,14,54C14,53.3623,14.93994,51.874,16,50.54785Z"/><path d="M24,58a4.00427,4.00427,0,0,0,4-4c0-1.94141-2.71191-5.0625-3.25586-5.668a1.03326,1.03326,0,0,0-1.48828,0C22.71191,48.9375,20,52.05859,20,54A4.00427,4.00427,0,0,0,24,58Zm0-7.45215C25.06006,51.874,26,53.3623,26,54a1.99369,1.99369,0,0,1-1,1.7218V54a1,1,0,0,0-2,0v1.7218A1.99369,1.99369,0,0,1,22,54C22,53.3623,22.93994,51.874,24,50.54785Z"/><path d="M32,58a4.00427,4.00427,0,0,0,4-4c0-1.94141-2.71191-5.0625-3.25586-5.668a1.03326,1.03326,0,0,0-1.48828,0C30.71191,48.9375,28,52.05859,28,54A4.00427,4.00427,0,0,0,32,58Zm0-7.45215C33.06006,51.874,34,53.3623,34,54a1.99369,1.99369,0,0,1-1,1.7218V54a1,1,0,0,0-2,0v1.7218A1.99369,1.99369,0,0,1,30,54C30,53.3623,30.93994,51.874,32,50.54785Z"/><path d="M40,58a4.00427,4.00427,0,0,0,4-4c0-1.94141-2.71191-5.0625-3.25586-5.668a1.03326,1.03326,0,0,0-1.48828,0C38.71191,48.9375,36,52.05859,36,54A4.00427,4.00427,0,0,0,40,58Zm0-7.45215C41.06006,51.874,42,53.3623,42,54a1.99369,1.99369,0,0,1-1,1.7218V54a1,1,0,0,0-2,0v1.7218A1.99369,1.99369,0,0,1,38,54C38,53.3623,38.93994,51.874,40,50.54785Z"/><path d="M6,30.94574V40a7.00818,7.00818,0,0,0,7,7H35a7.00818,7.00818,0,0,0,7-7V30.94574c2.20056-.225,5-1.22491,5-3.94574,0-2.77631-2.91565-3.76221-5.13464-3.9599-.49561-2.08112-2.8208-6.8576-13.63141-7.85284l.73626-2.94507A1.0003,1.0003,0,0,0,28,11H20a1.0003,1.0003,0,0,0-.97021,1.24219l.73626,2.94507C8.95544,16.1825,6.63025,20.959,6.13464,23.0401,3.91565,23.23779,1,24.22369,1,27,1,29.72083,3.79944,30.7207,6,30.94574ZM40,27H8V25H40ZM35,45H13a5.00588,5.00588,0,0,1-5-5V29H40V40A5.00588,5.00588,0,0,1,35,45ZM45,27c0,1.30945-1.8147,1.76147-3,1.9176V25.0824C43.1853,25.23853,45,25.69055,45,27ZM21.28076,13h5.43848l-.51319,2.0528C25.499,15.02167,24.77185,15,24,15s-1.499.02167-2.20605.0528ZM24,17c11.95557,0,14.98145,4.05762,15.74414,6H8.22852C8.94238,21.06543,11.88525,17,24,17ZM6,25.0824v3.8352C4.8147,28.76147,3,28.30945,3,27S4.8147,25.23853,6,25.0824Z"/><path d="M15,41H13a1.001,1.001,0,0,1-1-1V36a1,1,0,0,0-2,0v4a3.00328,3.00328,0,0,0,3,3h2a1,1,0,0,0,0-2Z"/><rect height="2" width="2" x="10" y="32"/><path d="M8,11a1,1,0,0,0,2,0,3.78161,3.78161,0,0,1,.832-2.44531A5.74518,5.74518,0,0,0,12,5,5.31579,5.31579,0,0,0,9.44727.10547.994.994,0,0,0,8.11963.543,1.00734,1.00734,0,0,0,8.53955,1.8877,3.39414,3.39414,0,0,1,10,5a3.78161,3.78161,0,0,1-.832,2.44531A5.74518,5.74518,0,0,0,8,11Z"/><path d="M34,13a1,1,0,0,0,2,0,3.78161,3.78161,0,0,1,.832-2.44531A5.74518,5.74518,0,0,0,38,7a5.31579,5.31579,0,0,0-2.55273-4.89453.994.994,0,0,0-1.32764.4375,1.00734,1.00734,0,0,0,.41992,1.34473A3.39414,3.39414,0,0,1,36,7a3.78161,3.78161,0,0,1-.832,2.44531A5.74518,5.74518,0,0,0,34,13Z"/><path d="M43,19a1,1,0,0,0,2,0,3.78161,3.78161,0,0,1,.832-2.44531A5.74518,5.74518,0,0,0,47,13a5.31579,5.31579,0,0,0-2.55273-4.89453.994.994,0,0,0-1.32764.4375,1.00734,1.00734,0,0,0,.41992,1.34473A3.39414,3.39414,0,0,1,45,13a3.78161,3.78161,0,0,1-.832,2.44531A5.74518,5.74518,0,0,0,43,19Z"/></g></svg>