<svg viewBox="-239 241 32 32" xml:space="preserve" xmlns="http://www.w3.org/2000/svg" enable-background="new -239 241 32 32"><path d="M-214 260.5c0 1.3-.3 2.4-1 3.4-.6.9-1.6 1.6-2.8 2.1-1.2.5-2.8.7-4.5.7-1.7 0-3.2-.3-4.4-.8-1.2-.5-2.1-1.2-2.7-2s-.9-1.6-.9-2.4c0-.5.2-1 .6-1.3.4-.4.8-.6 1.4-.6.5 0 .9.1 1.1.4.3.2.5.6.8 1 .5.8 1.1 1.5 1.7 1.9.7.4 1.6.6 2.8.6.9 0 1.7-.2 2.3-.6s.9-.9.9-1.4c0-.8-.3-1.4-.9-1.8-.6-.4-1.7-.7-3.1-1.1-1.6-.4-3-.8-4-1.3s-1.8-1-2.5-1.8c-.6-.7-.9-1.6-.9-2.7 0-.9.3-1.8.9-2.7.6-.8 1.4-1.5 2.5-2s2.4-.8 4-.8c1.2 0 2.3.1 3.3.4 1 .3 1.8.6 2.4 1 .7.4 1.2.9 1.5 1.4.3.5.5 1 .5 1.5s-.2 1-.5 1.3c-.4.3-.9.5-1.6.5-.5 0-.9-.1-1.2-.4l-1.2-1.2c-.4-.5-.8-.8-1.3-1.1-.5-.3-1.1-.4-2-.4-.9 0-1.6.2-2.1.5-.6.4-.9.8-.9 1.4 0 .5.2.9.6 1.2.4.3 1 .6 1.7.8s1.7.5 2.9.8c1.5.4 2.7.8 3.6 1.3.9.5 1.6 1.1 2.1 1.8.6.8.9 1.5.9 2.4z" fill="#ff4800" class="fill-f42f42"></path><path d="M-230.2 261c.1.5.4 1 .8 1.5.6.8 1.5 1.4 2.7 2 1.2.5 2.7.8 4.4.8 1.8 0 3.3-.2 4.5-.7 1.2-.5 2.2-1.2 2.8-2.1.5-.7.8-1.6.9-2.5v.6c0 1.3-.3 2.4-1 3.4-.6.9-1.6 1.6-2.8 2.1-1.2.5-2.8.7-4.5.7-1.7 0-3.2-.3-4.4-.8-1.2-.5-2.1-1.2-2.7-2s-.9-1.6-.9-2.4c.1-.2.2-.4.2-.6z" opacity=".2038" fill="#9c8d1d" enable-background="new" class="fill-332e0a"></path><path d="M-214 260.5c0 1.3-.3 2.4-1 3.4-.6.9-1.6 1.6-2.8 2.1-1.2.5-2.8.7-4.5.7-1.7 0-3.2-.3-4.4-.8-1.2-.5-2.1-1.2-2.7-2s-.9-1.6-.9-2.4c0-.5.2-1 .6-1.3.4-.4.8-.6 1.4-.6.5 0 .9.1 1.1.4.3.2.5.6.8 1 .5.8 1.1 1.5 1.7 1.9.7.4 1.6.6 2.8.6.9 0 1.7-.2 2.3-.6s.9-.9.9-1.4c0-.8-.3-1.4-.9-1.8-.6-.4-1.7-.7-3.1-1.1-1.6-.4-3-.8-4-1.3s-1.8-1-2.5-1.8c-.6-.7-.9-1.6-.9-2.7 0-.9.3-1.8.9-2.7.6-.8 1.4-1.5 2.5-2s2.4-.8 4-.8c1.2 0 2.3.1 3.3.4 1 .3 1.8.6 2.4 1 .7.4 1.2.9 1.5 1.4.3.5.5 1 .5 1.5s-.2 1-.5 1.3c-.4.3-.9.5-1.6.5-.5 0-.9-.1-1.2-.4l-1.2-1.2c-.4-.5-.8-.8-1.3-1.1-.5-.3-1.1-.4-2-.4-.9 0-1.6.2-2.1.5-.6.4-.9.8-.9 1.4 0 .5.2.9.6 1.2.4.3 1 .6 1.7.8s1.7.5 2.9.8c1.5.4 2.7.8 3.6 1.3.9.5 1.6 1.1 2.1 1.8.6.8.9 1.5.9 2.4z" fill="none" stroke="#01080a" stroke-linejoin="round" class="stroke-0a2933"></path><path d="M-228 250.7c1-1.5 2.5-2.2 4.4-2.2" fill="none" stroke="#ffffff" stroke-linecap="round" stroke-linejoin="round" stroke-dasharray="1,2,6,2,3" class="stroke-ffffff"></path></svg>