<?xml version="1.0" standalone="no"?><svg xmlns="http://www.w3.org/2000/svg" viewBox="0 0 1440 320"><path fill="#ffffff" fill-opacity="1" d="M0,0L6.2,0C12.3,0,25,0,37,48C49.2,96,62,192,74,218.7C86.2,245,98,203,111,160C123.1,117,135,75,148,58.7C160,43,172,53,185,53.3C196.9,53,209,43,222,74.7C233.8,107,246,181,258,192C270.8,203,283,149,295,122.7C307.7,96,320,96,332,96C344.6,96,357,96,369,112C381.5,128,394,160,406,181.3C418.5,203,431,213,443,224C455.4,235,468,245,480,245.3C492.3,245,505,235,517,240C529.2,245,542,267,554,240C566.2,213,578,139,591,122.7C603.1,107,615,149,628,170.7C640,192,652,192,665,181.3C676.9,171,689,149,702,160C713.8,171,726,213,738,208C750.8,203,763,149,775,154.7C787.7,160,800,224,812,256C824.6,288,837,288,849,272C861.5,256,874,224,886,229.3C898.5,235,911,277,923,288C935.4,299,948,277,960,261.3C972.3,245,985,235,997,229.3C1009.2,224,1022,224,1034,234.7C1046.2,245,1058,267,1071,277.3C1083.1,288,1095,288,1108,245.3C1120,203,1132,117,1145,74.7C1156.9,32,1169,32,1182,74.7C1193.8,117,1206,203,1218,213.3C1230.8,224,1243,160,1255,117.3C1267.7,75,1280,53,1292,85.3C1304.6,117,1317,203,1329,208C1341.5,213,1354,139,1366,96C1378.5,53,1391,43,1403,48C1415.4,53,1428,75,1434,85.3L1440,96L1440,0L1433.8,0C1427.7,0,1415,0,1403,0C1390.8,0,1378,0,1366,0C1353.8,0,1342,0,1329,0C1316.9,0,1305,0,1292,0C1280,0,1268,0,1255,0C1243.1,0,1231,0,1218,0C1206.2,0,1194,0,1182,0C1169.2,0,1157,0,1145,0C1132.3,0,1120,0,1108,0C1095.4,0,1083,0,1071,0C1058.5,0,1046,0,1034,0C1021.5,0,1009,0,997,0C984.6,0,972,0,960,0C947.7,0,935,0,923,0C910.8,0,898,0,886,0C873.8,0,862,0,849,0C836.9,0,825,0,812,0C800,0,788,0,775,0C763.1,0,751,0,738,0C726.2,0,714,0,702,0C689.2,0,677,0,665,0C652.3,0,640,0,628,0C615.4,0,603,0,591,0C578.5,0,566,0,554,0C541.5,0,529,0,517,0C504.6,0,492,0,480,0C467.7,0,455,0,443,0C430.8,0,418,0,406,0C393.8,0,382,0,369,0C356.9,0,345,0,332,0C320,0,308,0,295,0C283.1,0,271,0,258,0C246.2,0,234,0,222,0C209.2,0,197,0,185,0C172.3,0,160,0,148,0C135.4,0,123,0,111,0C98.5,0,86,0,74,0C61.5,0,49,0,37,0C24.6,0,12,0,6,0L0,0Z"></path></svg>