<?xml version="1.0" standalone="no"?><svg xmlns="http://www.w3.org/2000/svg" viewBox="0 0 1440 320"><path fill="#ffffff" fill-opacity="1" d="M0,0L6.2,0C12.3,0,25,0,37,48C49.2,96,62,192,74,218.7C86.2,245,98,203,111,160C123.1,117,135,75,148,58.7C160,43,172,53,185,53.3C196.9,53,209,43,222,74.7C233.8,107,246,181,258,192C270.8,203,283,149,295,122.7C307.7,96,320,96,332,96C344.6,96,357,96,369,112C381.5,128,394,160,406,181.3C418.5,203,431,213,443,224C455.4,235,468,245,480,245.3C492.3,245,505,235,517,240C529.2,245,542,267,554,240C566.2,213,578,139,591,122.7C603.1,107,615,149,628,170.7C640,192,652,192,665,181.3C676.9,171,689,149,702,160C713.8,171,726,213,738,208C750.8,203,763,149,775,154.7C787.7,160,800,224,812,256C824.6,288,837,288,849,272C861.5,256,874,224,886,229.3C898.5,235,911,277,923,288C935.4,299,948,277,960,261.3C972.3,245,985,235,997,229.3C1009.2,224,1022,224,1034,234.7C1046.2,245,1058,267,1071,277.3C1083.1,288,1095,288,1108,245.3C1120,203,1132,117,1145,74.7C1156.9,32,1169,32,1182,74.7C1193.8,117,1206,203,1218,213.3C1230.8,224,1243,160,1255,117.3C1267.7,75,1280,53,1292,85.3C1304.6,117,1317,203,1329,208C1341.5,213,1354,139,1366,96C1378.5,53,1391,43,1403,48C1415.4,53,1428,75,1434,85.3L1440,96L1440,320L1433.8,320C1427.7,320,1415,320,1403,320C1390.8,320,1378,320,1366,320C1353.8,320,1342,320,1329,320C1316.9,320,1305,320,1292,320C1280,320,1268,320,1255,320C1243.1,320,1231,320,1218,320C1206.2,320,1194,320,1182,320C1169.2,320,1157,320,1145,320C1132.3,320,1120,320,1108,320C1095.4,320,1083,320,1071,320C1058.5,320,1046,320,1034,320C1021.5,320,1009,320,997,320C984.6,320,972,320,960,320C947.7,320,935,320,923,320C910.8,320,898,320,886,320C873.8,320,862,320,849,320C836.9,320,825,320,812,320C800,320,788,320,775,320C763.1,320,751,320,738,320C726.2,320,714,320,702,320C689.2,320,677,320,665,320C652.3,320,640,320,628,320C615.4,320,603,320,591,320C578.5,320,566,320,554,320C541.5,320,529,320,517,320C504.6,320,492,320,480,320C467.7,320,455,320,443,320C430.8,320,418,320,406,320C393.8,320,382,320,369,320C356.9,320,345,320,332,320C320,320,308,320,295,320C283.1,320,271,320,258,320C246.2,320,234,320,222,320C209.2,320,197,320,185,320C172.3,320,160,320,148,320C135.4,320,123,320,111,320C98.5,320,86,320,74,320C61.5,320,49,320,37,320C24.6,320,12,320,6,320L0,320Z"></path></svg>